<svg xmlns="http://www.w3.org/2000/svg" viewBox="-10 -14 84 84"><svg x="0" y="0" width="64" height="64" xmlns="http://www.w3.org/2000/svg" class="fo fo-mordra fo-idle" viewBox="0 0 64 64" overflow="visible" aria-hidden="true" focusable="false"><defs><clipPath id="f-p0c"><path d="M48.3 57.6L48.3 14A1.3 1.3 0 0 0 45.7 14L45.7 57.6A1.3 1.3 0 0 0 48.3 57.6Z"/></clipPath><radialGradient id="f-rh1" cx="0.5" cy="0.5" r="0.5"><stop offset="0" stop-color="#58ffa0" stop-opacity="0.3"/><stop offset="0.45" stop-color="#58ffa0" stop-opacity="0.14"/><stop offset="1" stop-color="#58ffa0" stop-opacity="0"/></radialGradient><clipPath id="f-p2c"><path d="M42.4 9.6A 4.6 4.2 0 1 0 51.6 9.6A 4.6 4.2 0 1 0 42.4 9.6Z"/></clipPath><clipPath id="f-p3c"><path d="M45 15.2L49 15.2A1.6 1.6 0 0 0 49 12L45 12A1.6 1.6 0 0 0 45 15.2Z"/></clipPath><clipPath id="f-p4c"><path d="M37.6 38.9L42.8 42.8A3.4 3.4 0 0 0 47.2 37.6L42.4 33.1A3.8 3.8 0 0 0 37.6 38.9Z"/></clipPath><clipPath id="f-p5c"><path d="M44 40.6A 2.6 2.4 0 1 0 49.2 40.6A 2.6 2.4 0 1 0 44 40.6Z"/></clipPath><clipPath id="f-p6c"><path d="M18.4 36C16.4 30 16.4 24 18 16.4C20.4 19 22 20.6 23.4 22.6L40.8 22.6C42.2 20.6 43.8 19 46.2 16.4C47.8 24 47.8 30 45.8 36Z"/></clipPath><clipPath id="f-p7c"><path d="M22.4 33C20 41 17 49 16 57L19.4 55.4L22 58L25.4 55.6L28.6 58.2L32 55.8L35.4 58.2L38.6 55.6L42 58L44.6 55.4L48 57C47 49 44 41 41.6 33Z"/></clipPath><linearGradient id="f-gmor" x1="0" y1="0" x2="0.6" y2="1"><stop offset="0" stop-color="#3ba18f"/><stop offset=".6" stop-color="#2a8a7b"/></linearGradient><clipPath id="f-p8c"><path d="M29.6 38L32 36.4L34.4 38L32 41.6Z"/></clipPath><clipPath id="f-p9c"><path d="M23.4 26.4C23.4 20.4 27 17 32 17C37 17 40.6 20.4 40.6 26.4C40.6 30.4 38.6 33 36.6 34.4L35.6 37L28.4 37L27.4 34.4C25.4 33 23.4 30.4 23.4 26.4Z"/></clipPath><linearGradient id="f-gmbn" x1="0" y1="0" x2="0.6" y2="1"><stop offset="0" stop-color="#eef5e2"/><stop offset=".6" stop-color="#e3ecd4"/></linearGradient><clipPath id="f-p10c"><path d="M23.1 21.4L22.4 14.9L26 17.8L29.1 12.5L32 16.6L34.9 12.5L38 17.8L41.6 14.9L40.9 21.4C35.6 20 28.4 20 23.1 21.4Z"/></clipPath><linearGradient id="f-ggld" x1="0" y1="0" x2="0.6" y2="1"><stop offset="0" stop-color="#f8d273"/><stop offset=".6" stop-color="#f2c14e"/></linearGradient><radialGradient id="f-rh11" cx="0.5" cy="0.5" r="0.5"><stop offset="0" stop-color="#58ffa0" stop-opacity="0.8"/><stop offset="0.45" stop-color="#58ffa0" stop-opacity="0.36"/><stop offset="1" stop-color="#58ffa0" stop-opacity="0"/></radialGradient><radialGradient id="f-rh12" cx="0.5" cy="0.5" r="0.5"><stop offset="0" stop-color="#58ffa0" stop-opacity="0.8"/><stop offset="0.45" stop-color="#58ffa0" stop-opacity="0.36"/><stop offset="1" stop-color="#58ffa0" stop-opacity="0"/></radialGradient><clipPath id="f-p13c"><path d="M20.9 33.8L16.9 40A3.4 3.4 0 0 0 22.3 44L27.1 38.2A3.8 3.8 0 0 0 20.9 33.8Z"/></clipPath><clipPath id="f-p14c"><path d="M15.8 43A 2.6 2.4 0 1 0 21 43A 2.6 2.4 0 1 0 15.8 43Z"/></clipPath><radialGradient id="f-rh15" cx="0.5" cy="0.5" r="0.5"><stop offset="0" stop-color="#58ffa0" stop-opacity="0.35"/><stop offset="0.45" stop-color="#58ffa0" stop-opacity="0.16"/><stop offset="1" stop-color="#58ffa0" stop-opacity="0"/></radialGradient></defs><g><g class="fo-shadow"><g class="fo-sh"><path d="M16 58.3A 16 2.3 0 1 0 48 58.3A 16 2.3 0 1 0 16 58.3Z" fill="#2a1d33" opacity=".3"/></g></g><g class="fo-rig"><g class="fo-bob"><g><g stroke="#2a1d33" fill="#2a1d33" stroke-width="3.8" stroke-linejoin="round" stroke-linecap="round"><g class="fo-weapon"><path d="M48.3 57.6L48.3 14A1.3 1.3 0 0 0 45.7 14L45.7 57.6A1.3 1.3 0 0 0 48.3 57.6Z"/><g class="fo-skull"><path d="M42.4 9.6A 4.6 4.2 0 1 0 51.6 9.6A 4.6 4.2 0 1 0 42.4 9.6Z"/><path d="M45 15.2L49 15.2A1.6 1.6 0 0 0 49 12L45 12A1.6 1.6 0 0 0 45 15.2Z"/></g></g><g class="fo-armb"><path d="M37.6 38.9L42.8 42.8A3.4 3.4 0 0 0 47.2 37.6L42.4 33.1A3.8 3.8 0 0 0 37.6 38.9Z"/><path d="M44 40.6A 2.6 2.4 0 1 0 49.2 40.6A 2.6 2.4 0 1 0 44 40.6Z"/></g><g class="fo-head"><path d="M18.4 36C16.4 30 16.4 24 18 16.4C20.4 19 22 20.6 23.4 22.6L40.8 22.6C42.2 20.6 43.8 19 46.2 16.4C47.8 24 47.8 30 45.8 36Z"/></g><path d="M22.4 33C20 41 17 49 16 57L19.4 55.4L22 58L25.4 55.6L28.6 58.2L32 55.8L35.4 58.2L38.6 55.6L42 58L44.6 55.4L48 57C47 49 44 41 41.6 33Z"/><path d="M29.6 38L32 36.4L34.4 38L32 41.6Z"/><g class="fo-head"><path d="M23.4 26.4C23.4 20.4 27 17 32 17C37 17 40.6 20.4 40.6 26.4C40.6 30.4 38.6 33 36.6 34.4L35.6 37L28.4 37L27.4 34.4C25.4 33 23.4 30.4 23.4 26.4Z"/><g class="fo-crown"><path d="M23.1 21.4L22.4 14.9L26 17.8L29.1 12.5L32 16.6L34.9 12.5L38 17.8L41.6 14.9L40.9 21.4C35.6 20 28.4 20 23.1 21.4Z"/></g><g class="fo-eyes"></g></g><g class="fo-armf"><path d="M20.9 33.8L16.9 40A3.4 3.4 0 0 0 22.3 44L27.1 38.2A3.8 3.8 0 0 0 20.9 33.8Z"/><path d="M15.8 43A 2.6 2.4 0 1 0 21 43A 2.6 2.4 0 1 0 15.8 43Z"/><g class="fo-flame"></g></g></g><g class="fo-weapon"><path d="M48.3 57.6L48.3 14A1.3 1.3 0 0 0 45.7 14L45.7 57.6A1.3 1.3 0 0 0 48.3 57.6Z" fill="#b6c6e6"/><g clip-path="url(#f-p0c)"><path d="M48.3 57.6L48.3 14A1.3 1.3 0 0 0 45.7 14L45.7 57.6A1.3 1.3 0 0 0 48.3 57.6Z" fill="#4a3126" transform="translate(-0.3 0.1)"/><path d="M48.3 57.6L48.3 14A1.3 1.3 0 0 0 45.7 14L45.7 57.6A1.3 1.3 0 0 0 48.3 57.6Z" fill="#6e4c3a" transform="translate(-0.7 -0.6)"/><path d="M42.7 9.7H51.3V61.9H42.7ZM48.3 57.6L48.3 14A1.3 1.3 0 0 0 45.7 14L45.7 57.6A1.3 1.3 0 0 0 48.3 57.6Z" fill-rule="evenodd" fill="#9a7258" opacity=".9" transform="translate(0.2 0.3)"/></g><path d="M48.3 57.6L48.3 14A1.3 1.3 0 0 0 45.7 14L45.7 57.6A1.3 1.3 0 0 0 48.3 57.6Z" fill="none" stroke="#2c1c15" stroke-width="0.9" stroke-linecap="round" stroke-linejoin="round"/><g class="fo-skull"><g class="fo-glow"><g><path d="M40 10A 7 7 0 1 0 54 10A 7 7 0 1 0 40 10Z" fill="url(#f-rh1)"/></g></g><path d="M42.4 9.6A 4.6 4.2 0 1 0 51.6 9.6A 4.6 4.2 0 1 0 42.4 9.6Z" fill="#d9f6ff"/><g clip-path="url(#f-p2c)"><path d="M42.4 9.6A 4.6 4.2 0 1 0 51.6 9.6A 4.6 4.2 0 1 0 42.4 9.6Z" fill="#adbd9c" transform="translate(-0.5 0.1)"/><path d="M42.4 9.6A 4.6 4.2 0 1 0 51.6 9.6A 4.6 4.2 0 1 0 42.4 9.6Z" fill="#e3ecd4" transform="translate(-1.1 -1)"/><path d="M39.4 2H54.6V17.2H39.4ZM42.4 9.6A 4.6 4.2 0 1 0 51.6 9.6A 4.6 4.2 0 1 0 42.4 9.6Z" fill-rule="evenodd" fill="#fbfff2" opacity=".9" transform="translate(0.4 0.5)"/></g><path d="M42.4 9.6A 4.6 4.2 0 1 0 51.6 9.6A 4.6 4.2 0 1 0 42.4 9.6Z" fill="none" stroke="#56654a" stroke-width="0.9" stroke-linecap="round" stroke-linejoin="round"/><path d="M45 15.2L49 15.2A1.6 1.6 0 0 0 49 12L45 12A1.6 1.6 0 0 0 45 15.2Z" fill="#d9f6ff"/><g clip-path="url(#f-p3c)"><path d="M45 15.2L49 15.2A1.6 1.6 0 0 0 49 12L45 12A1.6 1.6 0 0 0 45 15.2Z" fill="#adbd9c" transform="translate(-0.3 0.1)"/><path d="M45 15.2L49 15.2A1.6 1.6 0 0 0 49 12L45 12A1.6 1.6 0 0 0 45 15.2Z" fill="#e3ecd4" transform="translate(-0.7 -0.6)"/><path d="M40.4 9H53.6V18.2H40.4ZM45 15.2L49 15.2A1.6 1.6 0 0 0 49 12L45 12A1.6 1.6 0 0 0 45 15.2Z" fill-rule="evenodd" fill="#fbfff2" opacity=".9" transform="translate(0.2 0.3)"/></g><path d="M45 15.2L49 15.2A1.6 1.6 0 0 0 49 12L45 12A1.6 1.6 0 0 0 45 15.2Z" fill="none" stroke="#56654a" stroke-width="0.9" stroke-linecap="round" stroke-linejoin="round"/><g class="fo-skeye"><g><path d="M43.8 9.8A 1.4 1.6 0 1 0 46.6 9.8A 1.4 1.6 0 1 0 43.8 9.8Z" fill="#16302b"/><path d="M47.7 9.8A 1.3 1.5 0 1 0 50.3 9.8A 1.3 1.5 0 1 0 47.7 9.8Z" fill="#16302b"/><path d="M44.6 9.9A 0.6 0.6 0 1 0 45.8 9.9A 0.6 0.6 0 1 0 44.6 9.9Z" fill="#7dffb8"/><path d="M48.5 9.9A 0.6 0.6 0 1 0 49.6 9.9A 0.6 0.6 0 1 0 48.5 9.9Z" fill="#7dffb8"/><path d="M46.2 14.2L46.2 15.2M47.8 14.2L47.8 15.2" fill="none" stroke="#56654a" stroke-width="0.5" stroke-linecap="round" stroke-linejoin="round"/></g></g></g></g><g class="fo-armb"><path d="M37.6 38.9L42.8 42.8A3.4 3.4 0 0 0 47.2 37.6L42.4 33.1A3.8 3.8 0 0 0 37.6 38.9Z" fill="#a8f1ff"/><g clip-path="url(#f-p4c)"><path d="M37.6 38.9L42.8 42.8A3.4 3.4 0 0 0 47.2 37.6L42.4 33.1A3.8 3.8 0 0 0 37.6 38.9Z" fill="#1b5e56" transform="translate(-0.7 0.1)"/><path d="M37.6 38.9L42.8 42.8A3.4 3.4 0 0 0 47.2 37.6L42.4 33.1A3.8 3.8 0 0 0 37.6 38.9Z" fill="#2a8a7b" transform="translate(-1.4 -1.3)"/><path d="M33.2 29.2H51.4V46.6H33.2ZM37.6 38.9L42.8 42.8A3.4 3.4 0 0 0 47.2 37.6L42.4 33.1A3.8 3.8 0 0 0 37.6 38.9Z" fill-rule="evenodd" fill="#50bda7" opacity=".9" transform="translate(0.5 0.6)"/></g><path d="M37.6 38.9L42.8 42.8A3.4 3.4 0 0 0 47.2 37.6L42.4 33.1A3.8 3.8 0 0 0 37.6 38.9Z" fill="none" stroke="#0e3a35" stroke-width="0.9" stroke-linecap="round" stroke-linejoin="round"/><path d="M44 40.6A 2.6 2.4 0 1 0 49.2 40.6A 2.6 2.4 0 1 0 44 40.6Z" fill="#d9f6ff"/><g clip-path="url(#f-p5c)"><path d="M44 40.6A 2.6 2.4 0 1 0 49.2 40.6A 2.6 2.4 0 1 0 44 40.6Z" fill="#adbd9c" transform="translate(-0.3 0.1)"/><path d="M44 40.6A 2.6 2.4 0 1 0 49.2 40.6A 2.6 2.4 0 1 0 44 40.6Z" fill="#e3ecd4" transform="translate(-0.7 -0.6)"/><path d="M41 35H52.2V46.2H41ZM44 40.6A 2.6 2.4 0 1 0 49.2 40.6A 2.6 2.4 0 1 0 44 40.6Z" fill-rule="evenodd" fill="#fbfff2" opacity=".9" transform="translate(0.2 0.3)"/></g><path d="M44 40.6A 2.6 2.4 0 1 0 49.2 40.6A 2.6 2.4 0 1 0 44 40.6Z" fill="none" stroke="#56654a" stroke-width="0.9" stroke-linecap="round" stroke-linejoin="round"/></g><g class="fo-head"><path d="M18.4 36C16.4 30 16.4 24 18 16.4C20.4 19 22 20.6 23.4 22.6L40.8 22.6C42.2 20.6 43.8 19 46.2 16.4C47.8 24 47.8 30 45.8 36Z" fill="#a8f1ff"/><g clip-path="url(#f-p6c)"><path d="M18.4 36C16.4 30 16.4 24 18 16.4C20.4 19 22 20.6 23.4 22.6L40.8 22.6C42.2 20.6 43.8 19 46.2 16.4C47.8 24 47.8 30 45.8 36Z" fill="#1b5e56" transform="translate(-0.7 0.1)"/><path d="M18.4 36C16.4 30 16.4 24 18 16.4C20.4 19 22 20.6 23.4 22.6L40.8 22.6C42.2 20.6 43.8 19 46.2 16.4C47.8 24 47.8 30 45.8 36Z" fill="#2a8a7b" transform="translate(-1.4 -1.3)"/><path d="M13.4 13.4H50.8V39H13.4ZM18.4 36C16.4 30 16.4 24 18 16.4C20.4 19 22 20.6 23.4 22.6L40.8 22.6C42.2 20.6 43.8 19 46.2 16.4C47.8 24 47.8 30 45.8 36Z" fill-rule="evenodd" fill="#50bda7" opacity=".9" transform="translate(0.5 0.6)"/><path d="M20 34C18.8 29.6 18.8 25 19.6 20.4C21.2 22.4 22.4 23.6 23.4 25.4L40.8 25.4C41.8 23.6 43 22.4 44.6 20.4C45.4 25 45.4 29.6 44.2 34Z" fill="#123f3a"/></g><path d="M18.4 36C16.4 30 16.4 24 18 16.4C20.4 19 22 20.6 23.4 22.6L40.8 22.6C42.2 20.6 43.8 19 46.2 16.4C47.8 24 47.8 30 45.8 36Z" fill="none" stroke="#0e3a35" stroke-width="0.9" stroke-linecap="round" stroke-linejoin="round"/></g><path d="M22.4 33C20 41 17 49 16 57L19.4 55.4L22 58L25.4 55.6L28.6 58.2L32 55.8L35.4 58.2L38.6 55.6L42 58L44.6 55.4L48 57C47 49 44 41 41.6 33Z" fill="#a8f1ff"/><g clip-path="url(#f-p7c)"><path d="M22.4 33C20 41 17 49 16 57L19.4 55.4L22 58L25.4 55.6L28.6 58.2L32 55.8L35.4 58.2L38.6 55.6L42 58L44.6 55.4L48 57C47 49 44 41 41.6 33Z" fill="#1b5e56" transform="translate(-1.3 0.2)"/><path d="M22.4 33C20 41 17 49 16 57L19.4 55.4L22 58L25.4 55.6L28.6 58.2L32 55.8L35.4 58.2L38.6 55.6L42 58L44.6 55.4L48 57C47 49 44 41 41.6 33Z" fill="url(#f-gmor)" transform="translate(-2.8 -2.5)"/><path d="M13 30H51V61.2H13ZM22.4 33C20 41 17 49 16 57L19.4 55.4L22 58L25.4 55.6L28.6 58.2L32 55.8L35.4 58.2L38.6 55.6L42 58L44.6 55.4L48 57C47 49 44 41 41.6 33Z" fill-rule="evenodd" fill="#50bda7" opacity=".9" transform="translate(1 1.2)"/><path d="M28.6 34L35.4 34L37.4 58L26.6 58Z" fill="#1b5e56"/><path d="M28.6 34L26.6 57M35.4 34L37.4 57" fill="none" stroke="#50bda7" stroke-width="0.6" stroke-linecap="round" stroke-linejoin="round" opacity=".7"/></g><path d="M22.4 33C20 41 17 49 16 57L19.4 55.4L22 58L25.4 55.6L28.6 58.2L32 55.8L35.4 58.2L38.6 55.6L42 58L44.6 55.4L48 57C47 49 44 41 41.6 33Z" fill="none" stroke="#0e3a35" stroke-width="0.9" stroke-linecap="round" stroke-linejoin="round"/><path d="M29.6 38L32 36.4L34.4 38L32 41.6Z" fill="#fff4d0"/><g clip-path="url(#f-p8c)"><path d="M29.6 38L32 36.4L34.4 38L32 41.6Z" fill="#c9922e" transform="translate(-0.3 0.1)"/><path d="M29.6 38L32 36.4L34.4 38L32 41.6Z" fill="#f2c14e" transform="translate(-0.7 -0.6)"/><path d="M26.6 33.4H37.4V44.6H26.6ZM29.6 38L32 36.4L34.4 38L32 41.6Z" fill-rule="evenodd" fill="#ffe7a0" opacity=".9" transform="translate(0.2 0.3)"/><path d="M31.2 38.6A 0.8 0.9 0 1 0 32.8 38.6A 0.8 0.9 0 1 0 31.2 38.6Z" fill="#58ffa0"/></g><path d="M29.6 38L32 36.4L34.4 38L32 41.6Z" fill="none" stroke="#6f4c14" stroke-width="0.9" stroke-linecap="round" stroke-linejoin="round"/><g class="fo-head"><path d="M23.4 26.4C23.4 20.4 27 17 32 17C37 17 40.6 20.4 40.6 26.4C40.6 30.4 38.6 33 36.6 34.4L35.6 37L28.4 37L27.4 34.4C25.4 33 23.4 30.4 23.4 26.4Z" fill="#d9f6ff"/><g clip-path="url(#f-p9c)"><path d="M23.4 26.4C23.4 20.4 27 17 32 17C37 17 40.6 20.4 40.6 26.4C40.6 30.4 38.6 33 36.6 34.4L35.6 37L28.4 37L27.4 34.4C25.4 33 23.4 30.4 23.4 26.4Z" fill="#adbd9c" transform="translate(-1.1 0.2)"/><path d="M23.4 26.4C23.4 20.4 27 17 32 17C37 17 40.6 20.4 40.6 26.4C40.6 30.4 38.6 33 36.6 34.4L35.6 37L28.4 37L27.4 34.4C25.4 33 23.4 30.4 23.4 26.4Z" fill="url(#f-gmbn)" transform="translate(-2.3 -2.1)"/><path d="M20.4 14H43.6V40H20.4ZM23.4 26.4C23.4 20.4 27 17 32 17C37 17 40.6 20.4 40.6 26.4C40.6 30.4 38.6 33 36.6 34.4L35.6 37L28.4 37L27.4 34.4C25.4 33 23.4 30.4 23.4 26.4Z" fill-rule="evenodd" fill="#fbfff2" opacity=".9" transform="translate(0.8 1)"/><path d="M25.2 29C26.4 30.4 28 30.8 29.6 30.4" fill="none" stroke="#adbd9c" stroke-width=".8"/><path d="M38.8 29C37.6 30.4 36 30.8 34.4 30.4" fill="none" stroke="#adbd9c" stroke-width=".8"/></g><path d="M23.4 26.4C23.4 20.4 27 17 32 17C37 17 40.6 20.4 40.6 26.4C40.6 30.4 38.6 33 36.6 34.4L35.6 37L28.4 37L27.4 34.4C25.4 33 23.4 30.4 23.4 26.4Z" fill="none" stroke="#56654a" stroke-width="0.9" stroke-linecap="round" stroke-linejoin="round"/><g class="fo-crown"><path d="M23.1 21.4L22.4 14.9L26 17.8L29.1 12.5L32 16.6L34.9 12.5L38 17.8L41.6 14.9L40.9 21.4C35.6 20 28.4 20 23.1 21.4Z" fill="#fff4d0"/><g clip-path="url(#f-p10c)"><path d="M23.1 21.4L22.4 14.9L26 17.8L29.1 12.5L32 16.6L34.9 12.5L38 17.8L41.6 14.9L40.9 21.4C35.6 20 28.4 20 23.1 21.4Z" fill="#c9922e" transform="translate(-0.5 0.1)"/><path d="M23.1 21.4L22.4 14.9L26 17.8L29.1 12.5L32 16.6L34.9 12.5L38 17.8L41.6 14.9L40.9 21.4C35.6 20 28.4 20 23.1 21.4Z" fill="url(#f-ggld)" transform="translate(-1.1 -1)"/><path d="M19.4 9.5H44.6V24.4H19.4ZM23.1 21.4L22.4 14.9L26 17.8L29.1 12.5L32 16.6L34.9 12.5L38 17.8L41.6 14.9L40.9 21.4C35.6 20 28.4 20 23.1 21.4Z" fill-rule="evenodd" fill="#ffe7a0" opacity=".9" transform="translate(0.4 0.5)"/></g><path d="M23.1 21.4L22.4 14.9L26 17.8L29.1 12.5L32 16.6L34.9 12.5L38 17.8L41.6 14.9L40.9 21.4C35.6 20 28.4 20 23.1 21.4Z" fill="none" stroke="#6f4c14" stroke-width="0.9" stroke-linecap="round" stroke-linejoin="round"/><path d="M21.6 14.9A 0.8 0.8 0 1 0 23.2 14.9A 0.8 0.8 0 1 0 21.6 14.9Z" fill="#ffe7a0" stroke="#2a1d33" stroke-width=".5"/><path d="M28.3 12.5A 0.8 0.8 0 1 0 29.9 12.5A 0.8 0.8 0 1 0 28.3 12.5Z" fill="#ffe7a0" stroke="#2a1d33" stroke-width=".5"/><path d="M34.1 12.5A 0.8 0.8 0 1 0 35.7 12.5A 0.8 0.8 0 1 0 34.1 12.5Z" fill="#ffe7a0" stroke="#2a1d33" stroke-width=".5"/><path d="M40.8 14.9A 0.8 0.8 0 1 0 42.4 14.9A 0.8 0.8 0 1 0 40.8 14.9Z" fill="#ffe7a0" stroke="#2a1d33" stroke-width=".5"/><path d="M32 16.8L33.6 18.8L32 20.8L30.4 18.8Z" fill="#58ffa0" stroke="#2a1d33" stroke-width=".6" stroke-linejoin="round"/><path d="M31.1 18.2A 0.5 0.5 0 1 0 32 18.2A 0.5 0.5 0 1 0 31.1 18.2Z" fill="#fff"/></g><g class="fo-eyes"><path d="M24.8 25.4C25.6 23.6 28.8 23.4 30.6 24.8C31 27.8 29.6 29.8 27.6 29.8C25.6 29.8 24.4 27.6 24.8 25.4Z" fill="#16302b"/><path d="M39.2 25.4C38.4 23.6 35.2 23.4 33.4 24.8C33 27.8 34.4 29.8 36.4 29.8C38.4 29.8 39.6 27.6 39.2 25.4Z" fill="#16302b"/><path d="M22.8 26.8A 4.8 4.8 0 1 0 32.4 26.8A 4.8 4.8 0 1 0 22.8 26.8Z" fill="url(#f-rh11)"/><path d="M31.6 26.8A 4.8 4.8 0 1 0 41.2 26.8A 4.8 4.8 0 1 0 31.6 26.8Z" fill="url(#f-rh12)"/><path d="M25.6 26.9A 1.8 2 0 1 0 29.2 26.9A 1.8 2 0 1 0 25.6 26.9Z" fill="#d8ffe9"/><path d="M34.4 26.9A 1.8 2 0 1 0 38 26.9A 1.8 2 0 1 0 34.4 26.9Z" fill="#d8ffe9"/><path d="M26.2 26.2A 0.6 0.6 0 1 0 27.4 26.2A 0.6 0.6 0 1 0 26.2 26.2Z" fill="#fff"/><path d="M35 26.2A 0.6 0.6 0 1 0 36.2 26.2A 0.6 0.6 0 1 0 35 26.2Z" fill="#fff"/><path d="M24.4 23.4L30.2 24.6M39.6 23.4L33.8 24.6" fill="none" stroke="#2a1d33" stroke-width="1.2" stroke-linecap="round" stroke-linejoin="round"/></g><path d="M32 29.8L30.8 31.8L33.2 31.8Z" fill="#3c4a36"/><path d="M28.8 34L35.2 34" fill="none" stroke="#56654a" stroke-width="0.9" stroke-linecap="round" stroke-linejoin="round"/><path d="M30.4 33L30.4 35.2M32 33L32 35.2M33.6 33L33.6 35.2" fill="none" stroke="#56654a" stroke-width="0.6" stroke-linecap="round" stroke-linejoin="round"/></g><g class="fo-armf"><path d="M20.9 33.8L16.9 40A3.4 3.4 0 0 0 22.3 44L27.1 38.2A3.8 3.8 0 0 0 20.9 33.8Z" fill="#a8f1ff"/><g clip-path="url(#f-p13c)"><path d="M20.9 33.8L16.9 40A3.4 3.4 0 0 0 22.3 44L27.1 38.2A3.8 3.8 0 0 0 20.9 33.8Z" fill="#1b5e56" transform="translate(-0.7 0.1)"/><path d="M20.9 33.8L16.9 40A3.4 3.4 0 0 0 22.3 44L27.1 38.2A3.8 3.8 0 0 0 20.9 33.8Z" fill="#2a8a7b" transform="translate(-1.4 -1.3)"/><path d="M13.2 29.2H30.8V48.4H13.2ZM20.9 33.8L16.9 40A3.4 3.4 0 0 0 22.3 44L27.1 38.2A3.8 3.8 0 0 0 20.9 33.8Z" fill-rule="evenodd" fill="#50bda7" opacity=".9" transform="translate(0.5 0.6)"/></g><path d="M20.9 33.8L16.9 40A3.4 3.4 0 0 0 22.3 44L27.1 38.2A3.8 3.8 0 0 0 20.9 33.8Z" fill="none" stroke="#0e3a35" stroke-width="0.9" stroke-linecap="round" stroke-linejoin="round"/><path d="M15.8 43A 2.6 2.4 0 1 0 21 43A 2.6 2.4 0 1 0 15.8 43Z" fill="#d9f6ff"/><g clip-path="url(#f-p14c)"><path d="M15.8 43A 2.6 2.4 0 1 0 21 43A 2.6 2.4 0 1 0 15.8 43Z" fill="#adbd9c" transform="translate(-0.3 0.1)"/><path d="M15.8 43A 2.6 2.4 0 1 0 21 43A 2.6 2.4 0 1 0 15.8 43Z" fill="#e3ecd4" transform="translate(-0.7 -0.6)"/><path d="M12.8 37.4H24V48.6H12.8ZM15.8 43A 2.6 2.4 0 1 0 21 43A 2.6 2.4 0 1 0 15.8 43Z" fill-rule="evenodd" fill="#fbfff2" opacity=".9" transform="translate(0.2 0.3)"/></g><path d="M15.8 43A 2.6 2.4 0 1 0 21 43A 2.6 2.4 0 1 0 15.8 43Z" fill="none" stroke="#56654a" stroke-width="0.9" stroke-linecap="round" stroke-linejoin="round"/><g class="fo-flame"><path d="M12.8 39A 5 5 0 1 0 22.8 39A 5 5 0 1 0 12.8 39Z" fill="url(#f-rh15)"/><path d="M16.2 41C15.2 38 17.4 37 17 34C19.8 36 20.6 38.6 19.8 41Z" fill="#7dffb8" stroke="#1b8a55" stroke-width=".7" stroke-linejoin="round"/></g></g></g></g></g></g></svg></svg>